<svg xmlns="http://www.w3.org/2000/svg" viewBox="0 0 640 220" fill="none" role="img" aria-labelledby="suTitle">
  <title id="suTitle">Startup cloud platform path</title>
  <rect width="640" height="220" rx="16" fill="#FFFFFF" stroke="#E4EAF1"/>
  <text x="24" y="32" fill="#5F6B7A" font-family="Ubuntu, ui-sans-serif, system-ui, sans-serif" font-size="12" letter-spacing="0.1em">STARTUP PLATFORM</text>

  <rect x="32" y="56" width="150" height="56" rx="12" fill="#F8FAFC" stroke="#04275F" stroke-width="1.75"/>
  <text x="48" y="78" fill="#04275F" font-family="Ubuntu, ui-sans-serif, system-ui, sans-serif" font-size="10">FOUND</text>
  <text x="48" y="98" fill="#04275F" font-family="Ubuntu, ui-sans-serif, system-ui, sans-serif" font-size="14" font-weight="600">Right-size cloud</text>

  <rect x="32" y="132" width="150" height="56" rx="12" fill="#D9EAF8" stroke="#438BD8" stroke-width="1.75"/>
  <text x="48" y="154" fill="#438BD8" font-family="Ubuntu, ui-sans-serif, system-ui, sans-serif" font-size="10">RUN</text>
  <text x="48" y="174" fill="#04275F" font-family="Ubuntu, ui-sans-serif, system-ui, sans-serif" font-size="14" font-weight="600">PaaS / AKS</text>

  <rect x="246" y="78" width="150" height="72" rx="12" fill="#FFF7F0" stroke="#F26A13" stroke-width="1.75"/>
  <text x="262" y="104" fill="#F26A13" font-family="Ubuntu, ui-sans-serif, system-ui, sans-serif" font-size="10">PATH</text>
  <text x="262" y="126" fill="#04275F" font-family="Ubuntu, ui-sans-serif, system-ui, sans-serif" font-size="15" font-weight="600">Golden path</text>
  <text x="262" y="144" fill="#5F6B7A" font-family="Ubuntu, ui-sans-serif, system-ui, sans-serif" font-size="12">CI + GitOps</text>

  <rect x="458" y="56" width="150" height="56" rx="12" fill="#FFFFFF" stroke="#04275F" stroke-width="1.75"/>
  <text x="474" y="78" fill="#04275F" font-family="Ubuntu, ui-sans-serif, system-ui, sans-serif" font-size="10">PILOT</text>
  <text x="474" y="98" fill="#04275F" font-family="Ubuntu, ui-sans-serif, system-ui, sans-serif" font-size="14" font-weight="600">POC first</text>

  <rect x="458" y="132" width="150" height="56" rx="12" fill="#D9EAF8" stroke="#438BD8" stroke-width="1.75"/>
  <text x="474" y="154" fill="#438BD8" font-family="Ubuntu, ui-sans-serif, system-ui, sans-serif" font-size="10">SCALE</text>
  <text x="474" y="174" fill="#04275F" font-family="Ubuntu, ui-sans-serif, system-ui, sans-serif" font-size="14" font-weight="600">On the rails</text>

  <path d="M182 84H246M182 160H260C280 160 300 140 300 114M396 114H458M396 114C396 160 420 160 458 160" stroke="#04275F" stroke-width="1.5" stroke-opacity="0.4"/>
</svg>
